<?xml version="1.0" encoding="UTF-8" standalone="no"?>
<svg
   xmlns:dc="http://purl.org/dc/elements/1.1/"
   xmlns:cc="http://creativecommons.org/ns#"
   xmlns:rdf="http://www.w3.org/1999/02/22-rdf-syntax-ns#"
   xmlns:svg="http://www.w3.org/2000/svg"
   xmlns="http://www.w3.org/2000/svg"
   xmlns:sodipodi="http://sodipodi.sourceforge.net/DTD/sodipodi-0.dtd"
   xmlns:inkscape="http://www.inkscape.org/namespaces/inkscape"
   inkscape:version="1.0 (4035a4fb49, 2020-05-01)"
   id="svg8"
   version="1.1"
   viewBox="0 0 11.49302 11.209467">
  <defs
     id="defs2" />
  <sodipodi:namedview
     inkscape:window-maximized="0"
     inkscape:window-y="0"
     inkscape:window-x="24"
     inkscape:window-height="872"
     inkscape:window-width="1274"
     fit-margin-bottom="0"
     fit-margin-right="0"
     fit-margin-left="0"
     fit-margin-top="0"
     showgrid="false"
     inkscape:document-rotation="0"
     inkscape:current-layer="layer1"
     inkscape:document-units="mm"
     inkscape:cy="552.61182"
     inkscape:cx="393.14792"
     inkscape:zoom="0.35"
     inkscape:pageshadow="2"
     inkscape:pageopacity="0.0"
     borderopacity="1.0"
     bordercolor="#666666"
     pagecolor="#ffffff"
     id="base" />
  <metadata
     id="metadata5">
    <rdf:RDF>
      <cc:Work
         rdf:about="">
        <dc:format>image/svg+xml</dc:format>
        <dc:type
           rdf:resource="http://purl.org/dc/dcmitype/StillImage" />
        <dc:title></dc:title>
      </cc:Work>
    </rdf:RDF>
  </metadata>
  <g
     transform="translate(-1.8129467,-1.9547886)"
     id="layer1"
     inkscape:groupmode="layer"
     inkscape:label="Layer 1">
    <path
       d="m 7.5589967,1.9547886 c -3.17324,0 -5.74605,2.57281 -5.74605,5.74675 0,2.5389404 1.64642,4.6926504 3.92995,5.4528904 0.28751,0.0526 0.39229,-0.12489 0.39229,-0.27729 0,-0.13617 -0.005,-0.49776 -0.008,-0.97719 -1.59844,0.34713 -1.93569,-0.77047 -1.93569,-0.77047 -0.26141,-0.66392 -0.63818,-0.84067 -0.63818,-0.84067 -0.52176,-0.3563004 0.0395,-0.3492504 0.0395,-0.3492504 0.57679,0.0406 0.88018,0.5923204 0.88018,0.5923204 0.51259,0.87806 1.34514,0.62441 1.67252,0.47731 0.0522,-0.37113 0.20038,-0.62442 0.36477,-0.768 -1.27599,-0.14499 -2.61761,-0.6381804 -2.61761,-2.8402104 0,-0.62724 0.22402,-1.14018 0.59161,-1.542 -0.0593,-0.14534 -0.25647,-0.72954 0.0561,-1.52082 0,0 0.4826,-0.15452 1.58045,0.58914 0.45826,-0.12771 0.95003,-0.19121 1.43862,-0.19332 0.4879,0.002 0.97967,0.0656 1.43863,0.19332 1.0971403,-0.74366 1.5786803,-0.58914 1.5786803,-0.58914 0.31362,0.79128 0.11642,1.37548 0.0572,1.52082 0.3683,0.40182 0.59091,0.91476 0.59091,1.542 0,2.20768 -1.3437303,2.6934504 -2.6239703,2.8356204 0.20638,0.17745 0.39018,0.52811 0.39018,1.06433 0,0.768 -0.007,1.38783 -0.007,1.57621 0,0.15382 0.10336,0.33267 0.39511,0.27658 2.2817703,-0.76164 3.9267703,-2.91394 3.9267703,-5.4521804 0,-3.17394 -2.57316,-5.74675 -5.7471003,-5.74675"
       style="fill:#ffffff;fill-opacity:1;fill-rule:evenodd;stroke:none;stroke-width:0.352777"
       id="path198" />
  </g>
</svg>
