<?xml version="1.0" encoding="UTF-8" standalone="no"?>
<svg
   xmlns:dc="http://purl.org/dc/elements/1.1/"
   xmlns:cc="http://creativecommons.org/ns#"
   xmlns:rdf="http://www.w3.org/1999/02/22-rdf-syntax-ns#"
   xmlns:svg="http://www.w3.org/2000/svg"
   xmlns="http://www.w3.org/2000/svg"
   xmlns:sodipodi="http://sodipodi.sourceforge.net/DTD/sodipodi-0.dtd"
   xmlns:inkscape="http://www.inkscape.org/namespaces/inkscape"
   id="Logo_FIXED"
   data-name="Logo — FIXED"
   viewBox="0 0 400 400"
   version="1.1"
   sodipodi:docname="twitterIcon.svg"
   inkscape:version="1.0 (4035a4fb49, 2020-05-01)">
  <metadata
     id="metadata15">
    <rdf:RDF>
      <cc:Work
         rdf:about="">
        <dc:format>image/svg+xml</dc:format>
        <dc:type
           rdf:resource="http://purl.org/dc/dcmitype/StillImage" />
        <dc:title>Twitter_Logo_Blue</dc:title>
      </cc:Work>
    </rdf:RDF>
  </metadata>
  <sodipodi:namedview
     inkscape:document-rotation="0"
     pagecolor="#ffffff"
     bordercolor="#666666"
     borderopacity="1"
     objecttolerance="10"
     gridtolerance="10"
     guidetolerance="10"
     inkscape:pageopacity="0"
     inkscape:pageshadow="2"
     inkscape:window-width="1062"
     inkscape:window-height="704"
     id="namedview13"
     showgrid="false"
     inkscape:zoom="1.1313709"
     inkscape:cx="201.93327"
     inkscape:cy="199.27044"
     inkscape:window-x="0"
     inkscape:window-y="0"
     inkscape:window-maximized="0"
     inkscape:current-layer="Logo_FIXED" />
  <defs
     id="defs4">
    <style
       id="style2">.cls-1{fill:none;}.cls-2{fill:#1da1f2;}</style>
  </defs>
  <title
     id="title6">Twitter_Logo_Blue</title>
  <rect
     class="cls-1"
     width="400"
     height="400"
     id="rect8" />
  <path
     id="path10"
     d="m 125.40777,324.02791 c 150.48294,0 232.79074,-124.67401 232.79074,-232.790759 0,-3.54115 0,-7.066354 -0.23927,-10.575602 A 166.46597,166.46597 0 0 0 398.77818,38.311311 163.30765,163.30765 0 0 1 351.78617,51.183866 82.100453,82.100453 0 0 0 387.75595,5.9305208 163.96163,163.96163 0 0 1 335.80313,25.789675 81.893089,81.893089 0 0 0 196.37433,100.40905 232.28031,232.28031 0 0 1 27.754966,14.926957 81.877137,81.877137 0 0 0 53.085356,124.14433 81.20719,81.20719 0 0 1 15.951132,113.9037 c 0,0.33498 0,0.6859 0,1.03683 A 81.845235,81.845235 0 0 0 81.590017,195.1428 81.685724,81.685724 0 0 1 44.647205,196.5465 81.90904,81.90904 0 0 0 121.08501,253.36442 164.16901,164.16901 0 0 1 19.476326,288.4569 166.54572,166.54572 0 0 1 0,287.27651 a 231.62632,231.62632 0 0 0 125.40777,36.6876"
     class="cls-2"
     style="fill:#1da1f2;stroke-width:1.59512" />
</svg>
